<svg width="24" height="24" xmlns="http://www.w3.org/2000/svg">

 <g>
  <title>background</title>
  <rect fill="none" id="canvas_background" height="402" width="582" y="-1" x="-1"/>
 </g>
 <g>
  <title>Layer 1</title>
  <path id="svg_1" fill="#8fe3cf" d="m13,6.75l0,-4.75l-4.25,0c-1.24264,0 -2.25,1.00736 -2.25,2.25l0,13c0,1.2426 1.00736,2.25 2.25,2.25l9,0c1.2426,0 2.25,-1.0074 2.25,-2.25l0,-8.25l-4.75,0c-1.2426,0 -2.25,-1.00736 -2.25,-2.25z"/>
  <path id="svg_2" fill="#b4b3b3" d="m14.5,6.75l0,-4.25l5,5l-4.25,0c-0.4142,0 -0.75,-0.33579 -0.75,-0.75z"/>
  <path id="svg_3" fill="#b4b3b3" d="m5.5028,4.62701c-0.87535,0.30809 -1.5028,1.14225 -1.5028,2.12296l0,10.50423c0,2.6233 2.12665,4.75 4.75,4.75l6.4944,0c0.9796,0 1.8129,-0.626 2.1219,-1.4998l-8.6163,-0.0002c-1.79493,0 -3.25,-1.4551 -3.25,-3.25l0.0028,-12.62719z"/>
 </g>
</svg>