<svg width="18" height="18" viewBox="0 0 18 18" fill="none" xmlns="http://www.w3.org/2000/svg">
<path d="M3.64182 2.61499L2.66 1.63863L1.89091 2.40772L2.86727 3.38408L3.64182 2.61499ZM2.13636 5.70227H0.5V6.79318H2.13636V5.70227ZM7.04545 0.274994H5.95455V1.88408H7.04545V0.274994ZM11.1091 2.40772L10.34 1.63863L9.36364 2.61499L10.1327 3.38408L11.1091 2.40772ZM9.35818 9.88045L10.3345 10.8623L11.1036 10.0932L10.1218 9.11681L9.35818 9.88045ZM10.8636 5.70227V6.79318H12.5V5.70227H10.8636ZM6.5 2.97499C4.69455 2.97499 3.22727 4.44227 3.22727 6.24772C3.22727 8.05318 4.69455 9.52045 6.5 9.52045C8.30545 9.52045 9.77273 8.05318 9.77273 6.24772C9.77273 4.44227 8.30545 2.97499 6.5 2.97499ZM5.95455 12.2204H7.04545V10.6114H5.95455V12.2204ZM1.89091 10.0877L2.66 10.8568L3.63636 9.87499L2.86727 9.1059L1.89091 10.0877Z" fill="#FAC213"/>
</svg>
